<?xml version="1.0" standalone="no"?>
<!DOCTYPE svg PUBLIC "-//W3C//DTD SVG 20010904//EN"
 "http://www.w3.org/TR/2001/REC-SVG-20010904/DTD/svg10.dtd">
<svg version="1.0" xmlns="http://www.w3.org/2000/svg"
 width="235.000000pt" height="235.000000pt" viewBox="0 0 235.000000 235.000000"
 preserveAspectRatio="xMidYMid meet">
<metadata>
Created by potrace 1.14, written by Peter Selinger 2001-2017
</metadata>
<g transform="translate(0.000000,235.000000) scale(0.100000,-0.100000)"
fill="#000000" stroke="none">
<path d="M1005 2340 c-172 -27 -396 -121 -530 -222 -454 -342 -603 -955 -357
-1458 121 -246 335 -453 582 -561 265 -117 590 -131 859 -37 341 119 617 396
730 733 224 671 -179 1377 -874 1531 -83 19 -325 27 -410 14z m348 -25 c424
-64 783 -366 921 -776 75 -224 75 -510 0 -734 -42 -127 -132 -293 -149 -278
-4 5 -5 3 -1 -4 3 -6 -20 -44 -52 -85 -130 -163 -329 -298 -539 -367 -245 -80
-513 -73 -765 19 -124 45 -326 169 -313 191 3 5 0 6 -8 4 -19 -8 -171 152
-229 240 -97 147 -158 305 -183 472 -96 638 343 1229 982 1322 93 14 230 12
336 -4z"/>
<path d="M1115 2283 c-510 -31 -936 -408 -1031 -910 -25 -132 -15 -366 20
-491 48 -172 141 -338 265 -473 33 -37 57 -70 53 -74 -4 -5 -2 -5 5 -1 7 4 35
-12 67 -38 115 -93 267 -166 433 -208 74 -19 114 -22 258 -22 153 0 180 3 270
28 687 186 1031 945 715 1576 -199 394 -619 639 -1055 613z m9 -378 c-9 -14
-26 -26 -38 -26 -11 -1 -31 -3 -43 -4 -15 -2 -20 2 -16 12 4 10 8 11 13 4 4
-7 11 -2 18 14 9 20 19 25 47 25 l35 0 -16 -25z m52 16 c12 10 13 8 8 -7 -7
-18 -7 -18 13 -1 13 11 33 17 51 15 l30 -3 -18 -23 c-17 -20 -23 -22 -54 -14
-24 7 -38 6 -46 -2 -8 -8 -10 -6 -5 9 7 20 6 20 -9 1 -19 -24 -21 -14 -4 14 7
11 15 15 16 10 3 -7 9 -7 18 1z m-158 -26 c-6 -14 -13 -23 -15 -21 -5 5 15 46
22 46 3 0 -1 -11 -7 -25z m282 22 c0 -2 -10 -12 -22 -23 l-23 -19 19 23 c18
21 26 27 26 19z m30 0 c0 -2 -10 -12 -22 -23 l-23 -19 19 23 c18 21 26 27 26
19z m-337 -27 c-6 -24 -19 -34 -60 -48 -37 -12 -37 -12 -22 22 18 38 91 62 82
26z m416 9 c29 -10 31 -12 14 -24 -10 -7 -29 -11 -43 -10 -14 1 -36 3 -49 4
-23 1 -24 2 -6 21 21 23 39 25 84 9z m41 -34 c-15 -18 1 -20 18 -3 9 9 18 9
38 -1 22 -10 30 -9 45 5 9 8 26 14 36 12 23 -5 23 -65 0 -98 -15 -22 -16 -21
-22 24 -4 25 -12 46 -17 46 -5 0 -6 -5 -2 -11 5 -8 -3 -10 -24 -7 -18 2 -28 0
-25 -5 7 -12 -36 1 -60 18 -18 13 -18 13 0 24 25 14 28 14 13 -4z m-210 -20
c0 -19 7 -26 28 -31 82 -18 172 -48 172 -59 0 -14 52 -65 66 -65 5 0 29 -18
53 -40 41 -38 45 -40 66 -26 21 14 24 12 58 -22 19 -20 48 -59 65 -87 24 -41
34 -50 55 -48 22 1 28 -5 43 -43 21 -56 12 -67 -54 -70 -26 -2 -78 -5 -117 -9
-52 -4 -64 -3 -47 5 29 12 26 17 -43 64 l-56 39 -95 -6 -95 -7 -112 97 c-62
53 -120 104 -130 113 -20 19 -42 94 -24 83 6 -4 8 0 4 10 -3 9 -3 19 2 21 9 6
8 43 -2 52 -11 11 -8 21 9 38 11 12 35 16 85 16 67 0 69 -1 69 -25z m-398 -19
c-4 -15 -22 -36 -40 -48 l-34 -21 4 29 c2 19 14 36 37 51 19 13 36 22 37 20 2
-2 0 -15 -4 -31z m218 14 c0 -11 -4 -20 -9 -20 -8 0 -10 -24 -11 -98 0 -50
-70 -143 -100 -135 -21 6 -21 6 -1 20 17 11 19 18 10 41 -13 34 -38 62 -56 62
-8 0 -25 -11 -38 -25 -21 -20 -25 -33 -23 -75 2 -41 -1 -54 -16 -62 -10 -6
-36 -27 -57 -47 -21 -20 -50 -46 -64 -58 -31 -27 -32 -47 0 -79 22 -22 30 -24
82 -18 43 4 54 3 41 -5 -9 -6 -27 -11 -40 -11 -12 0 -49 -2 -80 -6 -38 -4 -58
-3 -58 4 0 6 10 13 23 15 19 4 19 4 -5 6 -29 1 -44 -14 -40 -41 3 -16 -6 -18
-68 -18 l-70 0 6 28 c28 119 92 238 177 329 44 47 61 73 61 92 -1 21 0 22 3 4
5 -29 6 -29 56 6 59 40 94 57 178 85 90 31 99 31 99 6z m-173 -12 c-3 -8 -6
-5 -6 6 -1 11 2 17 5 13 3 -3 4 -12 1 -19z m488 2 c-21 -23 -45 -26 -45 -7 0
20 10 27 38 27 24 0 25 -1 7 -20z m285 -10 c0 -21 -36 -55 -44 -42 -10 17 14
71 30 65 8 -3 14 -13 14 -23z m-250 17 c0 -2 -10 -12 -22 -23 l-23 -19 19 23
c18 21 26 27 26 19z m15 -27 c-10 -11 -23 -20 -29 -20 -6 1 0 10 13 20 30 26
39 26 16 0z m42 -4 c-3 -7 0 -19 6 -25 8 -8 8 -14 0 -22 -8 -8 -11 -6 -10 7 2
14 -4 18 -20 16 -27 -4 -29 6 -5 24 22 17 35 17 29 0z m61 -8 c-19 -28 -34
-33 -42 -13 -4 10 2 19 17 25 35 14 40 12 25 -12z m-771 -35 c-3 -10 -5 -2 -5
17 0 19 2 27 5 18 2 -10 2 -26 0 -35z m943 32 c8 -10 9 -23 3 -42 l-10 -28
-15 30 c-23 44 -6 74 22 40z m-142 -26 c-3 -8 -7 -3 -11 10 -4 17 -3 21 5 13
5 -5 8 -16 6 -23z m-872 -77 l-25 -25 -7 27 c-6 23 -2 32 22 51 l29 23 3 -25
c3 -17 -5 -34 -22 -51z m844 26 c0 -22 -28 -24 -36 -3 -9 21 16 51 27 33 5 -7
9 -21 9 -30z m138 17 c-3 -3 -9 2 -12 12 -6 14 -5 15 5 6 7 -7 10 -15 7 -18z
m-47 -2 c-31 -54 -81 -84 -81 -50 0 21 48 58 88 66 1 1 -2 -7 -7 -16z m99 -12
c0 -20 -25 -51 -41 -51 -8 0 31 69 39 70 1 0 2 -9 2 -19z m17 -3 c-3 -8 -6 -5
-6 6 -1 11 2 17 5 13 3 -3 4 -12 1 -19z m317 -36 l34 4 -20 -29 -21 -29 20
-27 20 -27 -34 4 c-30 4 -35 1 -45 -26 l-12 -31 -18 31 c-16 25 -24 29 -49 26
-28 -4 -29 -4 -14 18 20 31 19 44 -5 69 l-19 20 38 -3 c34 -3 39 -1 51 28 l13
32 14 -32 c12 -29 17 -32 47 -28z m-1638 -30 c29 3 32 2 20 -12 -25 -29 -26
-38 -7 -62 l19 -24 -32 4 c-29 3 -34 0 -46 -27 l-13 -32 -19 32 c-16 26 -24
30 -48 27 l-29 -4 21 28 20 29 -23 26 -24 25 35 -4 c31 -3 37 1 50 28 l15 32
14 -35 c13 -31 17 -34 47 -31z m228 25 c4 -19 3 -26 -4 -22 -5 3 -10 18 -10
32 0 32 5 28 14 -10z m996 4 c0 -32 -22 -56 -45 -47 -20 7 -19 18 6 50 27 34
39 33 39 -3z m17 -3 c-3 -7 -5 -2 -5 12 0 14 2 19 5 13 2 -7 2 -19 0 -25z
m-1035 -18 c3 -16 1 -30 -4 -30 -4 0 -8 14 -8 30 0 17 2 30 4 30 2 0 6 -13 8
-30z m1148 -1 c0 -12 -47 -11 -55 0 -9 15 28 31 42 19 7 -6 13 -14 13 -19z
m-1183 -82 c-15 -22 -22 -26 -28 -15 -14 22 -10 44 13 74 l23 28 6 -29 c3 -21
-1 -39 -14 -58z m518 43 c21 -22 41 -38 43 -35 3 3 120 -94 172 -143 3 -2 -5
-1 -17 2 -13 4 -23 4 -23 -1 0 -5 -31 -10 -69 -11 -98 -4 -158 23 -188 86
l-22 46 21 48 c11 26 26 48 32 48 7 0 29 -18 51 -40z m599 31 c3 -5 -3 -11
-14 -14 -20 -5 -35 5 -23 17 9 9 31 7 37 -3z m79 -18 c-7 -2 -21 -2 -30 0 -10
3 -4 5 12 5 17 0 24 -2 18 -5z m-778 -33 c-14 -27 -35 -41 -35 -23 0 7 41 53
47 53 2 0 -3 -13 -12 -30z m728 13 c-7 -2 -21 -2 -30 0 -10 3 -4 5 12 5 17 0
24 -2 18 -5z m71 -2 c7 -10 -92 -27 -101 -17 -4 3 8 6 25 6 17 0 34 5 37 10 8
12 32 13 39 1z m43 -61 c12 -22 20 -40 18 -40 -20 0 -53 24 -68 49 -18 31 -18
31 5 31 17 0 29 -11 45 -40z m-1295 -24 c-6 -10 -20 20 -21 44 0 8 6 4 13 -10
8 -14 12 -29 8 -34z m1227 35 c12 -22 5 -32 -17 -24 -18 7 -32 22 -32 36 0 15
40 6 49 -12z m-1239 -65 c0 -18 -17 8 -24 34 l-7 25 15 -25 c9 -14 15 -29 16
-34z m-24 -10 c3 -13 -1 -36 -9 -52 l-14 -28 -13 23 c-9 18 -9 29 0 52 15 35
28 37 36 5z m1359 4 c2 -4 -7 -5 -20 -2 -14 2 -25 8 -25 12 0 10 38 1 45 -10z
m0 -20 c18 -8 17 -9 -7 -9 -16 -1 -28 4 -28 9 0 12 8 12 35 0z m15 -30 c9 0
32 -62 35 -90 0 -9 4 -21 9 -28 6 -10 2 -10 -18 0 -28 12 -36 31 -9 21 11 -4
14 -3 9 5 -4 7 -13 12 -19 12 -7 0 -20 21 -29 46 -14 39 -14 45 -1 40 8 -3 18
-6 23 -6z m-344 -14 c27 -21 8 -34 -43 -28 -34 3 -43 8 -43 23 0 15 7 19 33
19 18 0 42 -6 53 -14z m-1056 -45 c-1 -13 -4 -12 -15 3 -8 11 -15 27 -15 35 1
13 4 12 15 -3 8 -11 15 -27 15 -35z m865 29 c18 -20 17 -20 -13 -20 -25 0 -32
4 -32 20 0 11 6 20 13 20 8 0 22 -9 32 -20z m95 6 c0 -22 -57 -26 -77 -4 -15
17 -14 18 30 18 33 0 47 -4 47 -14z m-157 -10 c6 -16 -31 -26 -94 -26 -37 0
-51 15 -32 33 13 14 121 8 126 -7z m-144 -21 c-2 -2 -17 -7 -33 -11 -21 -5
-27 -4 -22 5 4 6 11 9 16 6 4 -3 14 2 21 11 9 11 15 12 17 4 2 -6 2 -13 1 -15z
m446 -15 c-10 -16 -35 7 -28 27 5 13 7 13 21 0 8 -8 11 -20 7 -27z m-525 9 c0
-5 -11 -9 -25 -9 -28 0 -34 16 -7 23 20 4 32 -1 32 -14z m-600 -14 c19 -36 7
-40 -14 -5 -9 17 -13 30 -8 30 5 0 15 -11 22 -25z m938 -26 c-13 -4 -40 -7
-60 -8 -34 -1 -38 2 -38 23 0 21 5 25 38 28 26 2 44 -3 60 -17 l24 -20 -24 -6z
m42 31 c0 -11 -2 -20 -3 -20 -2 0 -12 9 -22 20 -18 19 -17 20 3 20 15 0 22 -6
22 -20z m85 0 c0 -9 -14 -17 -37 -21 -35 -5 -38 -4 -38 18 0 22 4 24 38 21 25
-2 37 -8 37 -18z m-237 -18 c4 -25 -2 -28 -80 -36 l-58 -6 0 29 c0 29 1 30 58
34 75 4 76 4 80 -21z m327 18 c3 -5 1 -10 -4 -10 -6 0 -11 5 -11 10 0 6 2 10
4 10 3 0 8 -4 11 -10z m-60 -9 c3 -5 1 -12 -5 -16 -5 -3 -10 1 -10 9 0 18 6
21 15 7z m-415 -26 c0 -17 -6 -25 -17 -26 -13 -1 -10 -4 7 -10 18 -6 12 -7
-24 -4 -27 3 -57 5 -67 5 -14 0 -19 7 -19 30 l0 30 60 0 c57 0 60 -1 60 -25z
m-690 -5 c6 -12 8 -36 4 -56 -6 -35 -7 -35 -25 -17 -14 14 -17 27 -12 56 6 41
17 47 33 17z m557 -27 c-3 -10 -5 -4 -5 12 0 17 2 24 5 18 2 -7 2 -21 0 -30z
m490 31 c-3 -3 -12 -4 -19 -1 -8 3 -5 6 6 6 11 1 17 -2 13 -5z m-667 -24 c0
-16 -7 -20 -35 -20 -46 0 -48 27 -2 33 17 2 33 5 35 5 1 1 2 -7 2 -18z m580 8
c-82 -22 -100 -25 -175 -26 -70 -1 -76 0 -45 9 19 6 51 9 72 7 21 -2 38 0 38
4 0 6 53 13 120 15 19 1 16 -2 -10 -9z m-660 -19 c0 -5 -26 -9 -57 -9 -64 0
-63 17 2 22 44 4 55 1 55 -13z m1176 -10 c4 -8 1 -8 -14 0 -12 6 -24 16 -28
22 -4 8 -1 8 14 0 12 -6 24 -16 28 -22z m-4 -26 c12 -11 18 -30 18 -62 0 -45
0 -45 -19 -26 -18 19 -38 105 -24 105 3 0 15 -7 25 -17z m-1472 -52 c0 -11 -5
-10 -20 4 -11 10 -20 22 -20 27 0 4 9 3 20 -4 11 -7 20 -19 20 -27z m-1 -83
c1 -32 -2 -58 -6 -58 -22 1 -36 23 -40 66 -5 40 -3 47 8 37 24 -23 33 -14 11
10 -29 31 -28 42 2 20 20 -15 24 -27 25 -75z m1198 50 c-3 -8 -6 -5 -6 6 -1
11 2 17 5 13 3 -3 4 -12 1 -19z m293 -51 c0 -5 -7 -4 -15 3 -19 16 -20 2 -1
-19 11 -13 12 -28 4 -78 -6 -35 -15 -63 -20 -63 -6 0 -7 7 -4 16 3 8 2 12 -4
9 -11 -7 -13 3 -10 55 2 45 8 54 26 39 8 -7 14 -7 14 -1 0 5 -6 15 -14 21 -7
6 -13 23 -13 37 0 24 0 24 18 8 11 -9 19 -21 19 -27z m-469 -17 c-13 -11 -31
-20 -40 -20 -14 0 -14 2 -1 10 11 7 0 10 -40 12 -52 2 -52 2 20 8 41 4 77 7
80 8 3 1 -6 -8 -19 -18z m151 -22 c-8 -8 -9 -4 -5 13 4 13 8 18 11 10 2 -7 -1
-18 -6 -23z m-1164 -46 c2 -7 -1 -12 -8 -12 -6 0 -9 4 -6 9 3 5 -2 8 -11 7 -9
0 -18 5 -20 11 -3 10 2 11 18 5 13 -5 25 -14 27 -20z m1055 0 c-2 -10 -13 -18
-23 -18 -18 0 -18 1 -2 18 22 22 31 22 25 0z m87 -7 c-7 -8 -16 -15 -21 -15
-5 0 -1 8 9 18 20 22 31 19 12 -3z m-1140 -26 c0 -11 -3 -11 -24 -3 -23 9 -20
23 4 17 11 -3 20 -9 20 -14z m23 -69 c13 -34 13 -39 0 -44 -27 -11 -40 8 -57
76 -6 26 -5 27 18 17 13 -6 31 -28 39 -49z m1417 5 c0 -5 -5 -3 -10 5 -5 8
-10 20 -10 25 0 6 5 3 10 -5 5 -8 10 -19 10 -25z m-381 4 c48 -17 32 -20 -19
-4 -25 7 -38 14 -29 14 9 1 30 -4 48 -10z m371 -34 c0 -5 -5 -3 -10 5 -5 8
-10 20 -10 25 0 6 5 3 10 -5 5 -8 10 -19 10 -25z m-350 -6 l35 -19 -28 0 c-16
0 -26 4 -23 9 7 11 -17 21 -50 21 -15 0 -23 4 -19 10 8 12 35 5 85 -21z m63 7
c25 -19 21 -26 -8 -13 -14 7 -25 15 -25 20 0 11 13 8 33 -7z m272 -19 c4 -13
-2 -42 -13 -66 l-20 -43 -7 31 c-7 31 12 101 27 101 4 0 10 -10 13 -23z m-191
-39 c-6 -42 -29 -79 -44 -75 -4 1 -16 -9 -27 -22 -12 -15 -26 -22 -38 -19 -20
5 -20 5 0 13 29 12 64 56 58 72 -3 7 0 13 7 13 6 0 8 -4 5 -10 -3 -5 1 -10 9
-10 11 0 16 10 16 33 0 30 6 47 17 47 2 0 0 -19 -3 -42z m-27 26 c-3 -3 -12
-4 -19 -1 -8 3 -5 6 6 6 11 1 17 -2 13 -5z m-1147 -14 c0 -5 -11 -10 -25 -10
-14 0 -25 5 -25 10 0 6 11 10 25 10 14 0 25 -4 25 -10z m888 -27 c-2 -9 -10
-18 -18 -21 -8 -3 -12 -1 -8 3 4 5 4 13 -2 19 -6 8 -3 12 11 13 14 1 19 -3 17
-14z m-873 -3 c3 -6 -5 -10 -19 -10 -14 0 -28 5 -31 10 -3 6 5 10 19 10 14 0
28 -4 31 -10z m1304 -60 l-1 -25 -8 25 c-4 14 -8 32 -9 40 -1 13 0 13 9 0 5
-8 9 -26 9 -40z m-1278 18 c7 -13 25 -39 40 -59 l28 -36 -23 -11 c-32 -14 -43
-2 -14 16 23 13 23 13 -4 8 -15 -4 -30 -2 -33 4 -3 5 1 10 9 10 8 0 18 5 21
10 4 7 -2 9 -19 4 -21 -5 -28 -1 -46 28 -26 42 -25 48 5 48 15 0 29 -8 36 -22z
m1000 -18 c-13 -11 -33 -20 -45 -19 -20 0 -20 1 -1 9 l20 9 -20 1 c-17 2 -16
3 5 10 14 4 34 8 45 9 19 0 18 -1 -4 -19z m259 -22 c0 -38 -5 -34 -13 10 -4
21 -3 31 3 27 6 -3 10 -20 10 -37z m-20 -27 c0 -30 -21 -56 -35 -43 -5 4 -5 2
-2 -4 4 -6 0 -20 -8 -30 -13 -18 -14 -17 -15 14 0 33 32 92 51 92 5 0 9 -13 9
-29z m-1136 -70 c16 -16 25 -34 22 -40 -13 -20 -42 -11 -65 20 -19 25 -21 33
-10 40 20 13 23 12 53 -20z m924 22 c-10 -2 -26 -2 -35 0 -10 3 -2 5 17 5 19
0 27 -2 18 -5z m141 -30 c-1 -37 -1 -37 -8 -8 -7 28 -5 45 5 45 2 0 3 -17 3
-37z m-144 -3 c8 -13 -5 -13 -25 0 -13 8 -13 10 2 10 9 0 20 -4 23 -10z m124
-28 c0 -24 -1 -25 -9 -7 -12 28 -12 47 0 40 6 -3 10 -18 9 -33z m-56 -61 l-28
-25 -3 27 c-2 19 5 34 25 51 l28 25 3 -27 c3 -19 -4 -33 -25 -51z m-199 58
c-3 -6 0 -15 7 -20 21 -13 -24 -11 -58 3 -15 6 -48 14 -73 18 -37 6 -30 8 43
9 62 1 86 -2 81 -10z m-734 -5 c0 -4 -8 -13 -17 -20 -10 -7 -13 -14 -6 -14 6
0 15 5 18 10 8 13 25 13 25 1 0 -16 -40 -23 -56 -11 -12 11 -12 14 3 26 20 15
33 18 33 8z m100 -76 c0 -4 -9 -12 -20 -18 -16 -9 -27 -6 -56 14 -33 22 -34
25 -15 31 12 3 21 11 21 16 0 5 16 -1 35 -13 19 -13 35 -26 35 -30z m787 10
c-3 -7 -5 -2 -5 12 0 14 2 19 5 13 2 -7 2 -19 0 -25z m-25 -8 c-2 -17 -8 -32
-12 -35 -7 -5 -5 18 6 53 7 23 11 12 6 -18z m-28 -24 c-3 -15 -19 -33 -35 -41
-37 -19 -36 -20 -31 14 3 20 13 33 35 43 18 9 33 14 35 13 2 -1 0 -15 -4 -29z
m-715 -2 c-6 -8 -18 -14 -27 -14 -13 0 -12 3 3 20 20 22 43 17 24 -6z m75 -14
c49 -22 54 -31 31 -50 -13 -11 -23 -9 -56 6 -35 15 -39 20 -25 30 25 18 19 27
-6 10 -32 -23 -45 -20 -17 4 13 10 25 19 25 20 1 0 22 -9 48 -20z m560 -24
c-3 -15 -8 -25 -11 -23 -2 3 -1 17 3 31 3 15 8 25 11 23 2 -3 1 -17 -3 -31z
m-31 -27 c-6 -6 -7 3 -4 23 4 28 6 29 9 9 2 -13 0 -27 -5 -32z m-21 12 c-3
-24 -10 -30 -47 -38 -42 -10 -42 -9 -36 15 5 17 19 30 42 38 47 17 46 17 41
-15z m-442 -10 c-6 -12 -15 -21 -21 -21 -5 0 -2 11 7 25 20 30 31 26 14 -4z
m30 0 c-16 -31 -32 -36 -18 -7 6 14 15 26 20 26 5 0 4 -9 -2 -19z m86 1 c17
-6 20 -11 13 -29 -7 -19 -13 -22 -41 -17 -58 10 -60 12 -48 34 11 20 36 24 76
12z m203 -22 c-6 -16 -15 -30 -19 -30 -5 0 -3 14 3 30 6 17 15 30 19 30 4 0 2
-13 -3 -30z m22 -1 c-5 -13 -10 -19 -10 -12 -1 15 10 45 15 40 3 -2 0 -15 -5
-28z m-183 -4 c-6 -14 -15 -25 -19 -25 -5 0 -3 11 3 25 6 14 15 25 19 25 5 0
3 -11 -3 -25z m30 0 c-6 -14 -15 -25 -19 -25 -5 0 -3 11 3 25 6 14 15 25 19
25 5 0 3 -11 -3 -25z m103 3 c-7 -19 -17 -24 -55 -26 l-46 -3 12 25 c9 22 18
26 54 26 41 0 43 -1 35 -22z"/>
<path d="M1395 1880 c-3 -5 -2 -10 4 -10 5 0 13 5 16 10 3 6 2 10 -4 10 -5 0
-13 -4 -16 -10z"/>
<path d="M1957 1638 c-15 -13 -18 -21 -9 -24 6 -3 10 -9 7 -14 -7 -11 45 -7
64 4 10 6 12 5 7 -2 -4 -7 -3 -12 3 -12 33 0 12 56 -24 62 -17 4 -33 -1 -48
-14z"/>
<path d="M314 1613 c-11 -11 -13 -18 -5 -21 6 -2 9 -8 5 -13 -3 -5 15 -9 40
-9 51 0 57 5 45 38 -10 27 -59 30 -85 5z"/>
<path d="M1210 1515 c35 -36 67 -65 69 -65 3 0 -24 29 -59 65 -35 36 -67 65
-69 65 -3 0 24 -29 59 -65z"/>
</g>
</svg>
