<?xml version="1.0" standalone="no"?>
<!DOCTYPE svg PUBLIC "-//W3C//DTD SVG 20010904//EN"
 "http://www.w3.org/TR/2001/REC-SVG-20010904/DTD/svg10.dtd">
<svg version="1.0" xmlns="http://www.w3.org/2000/svg"
 width="925.000000pt" height="925.000000pt" viewBox="0 0 925.000000 925.000000"
 preserveAspectRatio="xMidYMid meet">
<metadata>
Created by potrace 1.14, written by Peter Selinger 2001-2017
</metadata>
<g transform="translate(0.000000,925.000000) scale(0.100000,-0.100000)"
fill="#000000" stroke="none">
<path d="M4450 8210 c-281 -22 -626 -86 -905 -166 -1045 -302 -1915 -953
-2539 -1903 -325 -494 -631 -1170 -785 -1736 -120 -436 -164 -812 -164 -1385
0 -362 30 -1290 41 -1301 17 -16 646 -177 1042 -267 973 -221 1845 -354 2720
-414 384 -26 1242 -14 1875 28 1361 88 2703 327 3346 595 l147 61 6 101 c16
244 4 900 -25 1427 -49 889 -243 1649 -605 2371 -265 529 -578 964 -998 1385
-271 270 -457 424 -737 607 -523 342 -1037 519 -1694 582 -198 19 -572 27
-725 15z m535 -241 c719 -47 1232 -213 1780 -575 258 -171 457 -337 710 -596
394 -400 700 -835 945 -1343 301 -621 464 -1232 535 -1997 43 -471 46 -1464 5
-1574 -11 -29 -13 -29 -229 -95 -526 -160 -1231 -298 -1981 -389 -699 -84
-1603 -140 -2265 -140 -1046 0 -2385 191 -3750 535 -399 100 -404 102 -409
128 -4 20 -11 230 -32 942 -10 344 17 774 67 1070 118 701 493 1582 941 2212
198 279 476 587 723 801 569 494 1266 830 2005 966 321 59 628 77 955 55z"/>
<path d="M4497 7385 c-4 -126 -7 -303 -7 -392 l0 -163 75 0 75 0 0 109 c0 59
3 128 6 153 l6 44 92 -4 c50 -2 99 -8 109 -14 35 -18 47 -55 57 -163 5 -60 13
-112 17 -115 5 -4 41 -10 82 -14 67 -6 73 -5 66 11 -4 10 -12 70 -17 133 -10
126 -32 191 -74 213 l-23 12 29 20 c51 34 75 90 75 176 0 67 -4 81 -30 124
-21 34 -44 56 -75 71 -42 21 -60 23 -251 26 l-206 3 -6 -230z m389 64 c37 -39
37 -127 -1 -164 -23 -23 -31 -25 -130 -25 l-105 0 0 111 0 112 106 -6 c95 -4
109 -8 130 -28z"/>
<path d="M5231 7198 c-35 -205 -66 -378 -68 -384 -5 -13 20 -21 97 -30 l55 -6
64 373 c35 206 63 379 63 384 -1 10 -30 18 -107 29 l-40 6 -64 -372z"/>
<path d="M3947 7535 c-32 -7 -59 -14 -61 -16 -2 -2 -25 -182 -51 -399 -26
-217 -49 -396 -50 -398 -1 -1 -12 22 -25 53 -12 30 -25 55 -28 55 -4 0 -73
-28 -154 -61 -82 -34 -150 -60 -152 -58 -2 2 -56 132 -120 289 -65 157 -120
287 -122 289 -7 7 -134 -51 -134 -61 0 -10 275 -682 288 -704 5 -7 83 21 232
83 124 52 257 102 295 112 l70 17 10 89 10 89 105 22 c151 33 142 36 185 -48
21 -40 39 -75 41 -77 6 -7 154 21 154 29 0 4 -90 164 -199 356 -142 249 -204
349 -218 351 -10 1 -44 -4 -76 -12z m131 -337 c29 -53 52 -101 52 -106 0 -9
-151 -44 -158 -37 -4 4 16 219 24 254 5 23 6 23 18 5 7 -10 36 -63 64 -116z"/>
<path d="M5621 7466 c-33 -89 -36 -85 59 -118 47 -16 89 -33 93 -37 4 -5 -39
-140 -97 -301 -58 -162 -104 -295 -103 -297 2 -1 33 -14 71 -28 l67 -25 13 32
c7 18 53 143 101 278 48 135 91 255 96 267 l8 22 83 -31 c46 -17 89 -31 96
-32 8 0 22 19 32 44 37 95 52 80 -157 155 -104 37 -223 80 -265 95 l-77 28
-20 -52z"/>
<path d="M6136 6898 l-317 -262 60 -38 c33 -21 64 -38 69 -38 5 0 31 19 58 42
27 23 57 48 66 56 15 13 29 7 123 -53 58 -37 105 -70 105 -74 0 -3 -9 -39 -20
-79 -11 -39 -20 -76 -20 -82 0 -18 124 -91 131 -77 4 7 48 181 98 387 51 206
93 380 96 387 3 8 -71 61 -126 89 -3 2 -148 -115 -323 -258z m240 -93 c-20
-70 -37 -129 -38 -131 -6 -6 -138 81 -135 90 5 14 202 184 205 176 1 -4 -13
-65 -32 -135z"/>
<path d="M2671 7019 c-87 -17 -172 -84 -219 -173 -22 -44 -26 -63 -26 -136 1
-132 53 -249 159 -355 169 -168 421 -147 529 45 28 49 31 64 31 135 -1 65 -6
91 -28 138 l-26 58 -61 -41 c-33 -22 -60 -42 -60 -44 0 -2 7 -21 16 -42 63
-150 -97 -275 -237 -185 -82 51 -163 175 -176 266 -8 63 18 128 65 160 50 34
125 35 173 2 l34 -24 58 39 c31 21 57 43 57 47 0 16 -64 64 -115 87 -61 27
-116 34 -174 23z"/>
<path d="M7082 6648 c-11 -18 -93 -163 -182 -323 -89 -159 -170 -304 -181
-321 l-18 -30 62 -62 62 -61 350 191 c193 105 352 192 354 194 5 5 -89 114
-98 114 -5 0 -117 -60 -250 -134 -132 -74 -241 -132 -241 -129 0 3 61 113 136
245 l136 240 -54 55 -55 55 -21 -34z"/>
<path d="M4555 6603 c-687 -43 -1343 -335 -1818 -808 -249 -248 -448 -534
-615 -885 -154 -322 -239 -594 -284 -910 -15 -106 -16 -772 -1 -1030 l8 -145
145 -37 c640 -165 1285 -280 1925 -344 218 -21 899 -30 1210 -15 782 38 1495
133 1995 267 154 41 325 96 331 106 15 23 34 398 33 653 -2 754 -156 1323
-499 1840 -105 159 -188 259 -364 439 -253 258 -471 436 -693 567 -327 194
-603 273 -1039 299 -168 9 -227 10 -334 3z m525 -169 c312 -36 590 -139 860
-319 286 -191 626 -512 831 -784 420 -559 601 -1286 549 -2207 -6 -99 -12
-189 -15 -200 -4 -18 -27 -28 -153 -63 -830 -233 -2294 -353 -3230 -266 -550
51 -1152 155 -1762 303 l-155 37 -8 45 c-5 25 -9 252 -10 505 -2 460 -2 460
25 605 89 478 328 993 647 1390 447 558 1130 912 1876 974 90 7 407 -4 545
-20z"/>
<path d="M4546 6288 c-318 -28 -667 -119 -946 -247 -539 -245 -958 -673 -1188
-1211 -56 -130 -125 -331 -117 -339 3 -2 217 -9 475 -15 367 -7 470 -12 470
-22 0 -7 -40 -129 -89 -271 -92 -270 -119 -324 -191 -386 -46 -39 -49 -47 -18
-47 19 0 16 -6 -27 -50 -40 -40 -58 -51 -102 -60 -74 -16 -101 -42 -119 -115
-7 -33 -14 -73 -14 -90 0 -45 33 -109 69 -134 67 -48 255 -95 433 -107 l94 -7
-22 -116 c-32 -163 -32 -161 15 -161 39 0 40 1 55 53 8 28 25 91 37 140 l21
87 58 0 58 0 6 -57 c3 -32 8 -98 12 -146 l6 -88 36 7 c21 4 40 10 45 13 4 4 3
66 -2 137 -6 71 -7 132 -3 135 4 3 83 18 176 33 223 34 240 44 283 151 53 131
39 190 -53 214 -22 5 -57 14 -80 20 l-41 11 -21 88 c-12 48 -22 99 -22 112 0
13 -9 33 -20 45 -15 16 -31 84 -70 288 -27 147 -50 270 -50 272 0 3 -9 5 -20
5 -11 0 -20 -4 -20 -10 0 -5 18 -121 41 -257 22 -136 42 -282 43 -323 2 -67 0
-81 -28 -132 -31 -59 -40 -67 -52 -47 -13 22 -44 154 -44 191 0 45 -15 86 -42
115 l-20 21 21 57 c36 96 27 129 -47 176 -108 69 -252 8 -252 -106 0 -24 4
-55 9 -68 13 -33 -16 -104 -104 -252 -65 -110 -69 -115 -101 -115 -19 0 -34 4
-34 9 0 21 25 78 43 99 16 17 21 38 23 90 2 63 22 140 135 510 l22 72 171 -1
c94 0 393 -6 664 -12 272 -7 495 -10 497 -7 11 18 48 1842 37 1850 -4 3 -47 2
-96 -2z m-267 -597 c22 -22 41 -80 41 -126 0 -100 -79 -275 -171 -380 -33 -38
-87 -110 -119 -158 -61 -93 -92 -123 -138 -136 -38 -11 -68 2 -92 41 -41 68
-20 128 88 251 49 54 82 128 82 179 0 10 2 18 5 18 23 0 80 -35 114 -70 23
-23 41 -36 41 -29 0 7 -31 44 -70 82 -38 37 -70 76 -70 86 0 9 12 35 28 58 71
107 114 163 138 182 35 27 97 28 123 2z m-679 -146 c32 -16 52 -68 42 -107
-10 -42 -135 -240 -156 -249 -17 -8 -35 -3 -85 21 -35 17 -80 34 -100 36 l-36
4 30 -14 c17 -9 35 -15 41 -16 6 0 29 -16 53 -36 l42 -36 -50 -34 c-58 -39
-75 -62 -124 -165 -47 -98 -91 -139 -151 -139 -61 0 -96 29 -96 80 0 52 11 79
74 174 29 44 76 126 105 181 57 113 104 172 186 235 53 41 138 79 178 80 10 0
31 -7 47 -15z m198 -651 c25 -24 78 -38 108 -28 15 5 15 2 -5 -15 -30 -27 -57
-26 -101 0 -43 27 -50 36 -49 74 0 27 1 28 12 11 7 -11 22 -30 35 -42z m-795
-43 c20 -44 74 -76 110 -66 21 6 21 6 3 -9 -53 -43 -145 9 -146 82 0 42 11 40
33 -7z m521 -660 c35 -19 50 -59 42 -107 -5 -25 -12 -34 -27 -34 -17 0 -20 6
-17 33 l3 32 -80 0 c-69 0 -80 -2 -83 -18 -2 -10 4 -24 13 -31 20 -14 16 -51
-5 -51 -8 0 -25 16 -38 35 -18 27 -23 44 -19 73 6 43 38 84 71 90 36 7 110 -5
140 -22z m-7 -227 c8 -22 -6 -32 -53 -39 -43 -7 -74 10 -74 41 0 21 118 20
127 -2z m-435 -125 c-3 -26 -22 -43 -35 -30 -12 12 11 63 26 58 6 -2 11 -15 9
-28z m717 -18 c11 -20 5 -31 -15 -31 -14 0 -27 28 -18 41 9 14 23 10 33 -10z
m-220 -134 c1 -27 -3 -37 -11 -35 -9 3 -14 30 -15 79 l-1 74 13 -40 c7 -22 14
-57 14 -78z m-594 93 c-3 -5 -11 -10 -16 -10 -6 0 -7 5 -4 10 3 6 11 10 16 10
6 0 7 -4 4 -10z m295 -55 l0 -55 -40 0 c-22 0 -40 3 -40 6 0 8 70 104 76 104
2 0 4 -25 4 -55z m535 -34 l13 -51 -39 0 c-21 0 -39 4 -39 10 0 13 43 100 48
96 2 -2 9 -27 17 -55z m-326 -67 c27 -6 31 -10 31 -40 l0 -34 -69 0 c-49 0
-72 4 -81 15 -25 30 -246 8 -324 -32 -27 -14 -31 -14 -43 3 -8 11 -12 28 -9
39 3 11 6 25 6 32 0 8 22 13 58 16 106 6 399 7 431 1z m-531 -31 c-2 -21 -9
-29 -28 -31 -72 -10 -90 -111 -31 -177 13 -15 17 -31 13 -62 -4 -40 -6 -43
-31 -37 -50 12 -132 56 -147 79 -30 46 -31 169 0 210 14 19 110 42 184 44 42
1 43 0 40 -26z m762 2 c147 -20 150 -21 150 -50 0 -23 -3 -24 -47 -19 -27 3
-97 8 -158 12 -105 7 -110 8 -113 30 -5 36 4 50 30 46 13 -2 75 -11 138 -19z
m277 -50 c21 -9 41 -21 45 -28 20 -31 -6 -171 -36 -196 -8 -7 -30 -15 -50 -18
-36 -6 -36 -5 -36 30 0 29 4 36 26 41 36 9 30 50 -8 54 -35 4 -38 32 -4 32 14
0 28 4 31 10 10 16 -14 50 -35 50 -11 0 -20 2 -20 4 0 2 -3 11 -6 20 -8 21 43
22 93 1z m-687 -62 c0 -16 -3 -39 -7 -52 -6 -23 -8 -23 -98 -19 -100 4 -145
22 -145 59 0 29 33 38 148 38 l102 1 0 -27z m560 -38 c0 -10 -260 -24 -287
-16 -7 2 -13 10 -13 17 0 12 26 14 150 12 91 -2 150 -7 150 -13z m-728 -129
c110 -23 189 -21 221 4 19 15 40 20 86 20 l61 0 0 -40 0 -40 -157 0 c-87 0
-216 3 -286 7 l-128 6 6 41 c4 23 14 49 22 58 15 16 18 16 57 -12 27 -19 68
-34 118 -44z m740 18 c2 -20 0 -38 -6 -40 -6 -2 -82 -10 -169 -17 l-157 -13 0
42 0 42 128 7 c70 3 132 8 137 10 6 2 22 4 36 4 23 1 27 -4 31 -35z"/>
<path d="M3901 5171 c-8 -5 -11 -16 -7 -29 4 -12 -1 -44 -11 -71 -16 -47 -16
-52 -1 -67 23 -23 63 -11 85 26 11 19 26 30 39 30 20 0 52 26 43 34 -2 2 -24
14 -49 26 -25 12 -54 31 -65 41 -13 11 -25 15 -34 10z m63 -82 c-7 -12 -31
-11 -38 0 -4 5 -3 17 0 26 6 15 8 15 25 -1 10 -9 16 -21 13 -25z"/>
<path d="M3122 5089 c-9 -14 -10 -25 -2 -40 9 -15 7 -25 -9 -46 -23 -29 -27
-63 -9 -81 19 -19 35 -14 77 23 21 19 48 35 59 35 34 0 35 28 1 45 -17 9 -47
31 -68 50 -36 32 -37 33 -49 14z m77 -68 c18 -11 5 -31 -20 -31 -12 0 -19 7
-19 20 0 21 16 26 39 11z"/>
<path d="M5345 6013 c-21 -49 -87 -188 -146 -311 l-108 -222 76 -35 c88 -41
70 -38 209 -36 l111 1 7 132 c4 73 9 134 10 136 2 1 42 -1 89 -4 l87 -7 -7
-133 -6 -134 111 0 112 0 0 -95 0 -94 -98 -3 -99 -3 280 -128 279 -128 35 27
c20 15 44 42 55 61 25 41 20 42 190 -43 l128 -64 -17 42 c-9 24 -45 113 -79
198 l-61 155 -161 60 -161 60 -156 290 c-87 160 -160 294 -164 298 -4 4 -45
-36 -90 -88 -74 -86 -85 -95 -99 -82 -10 7 -74 64 -144 125 -69 62 -130 112
-135 112 -6 0 -27 -39 -48 -87z"/>
<path d="M4980 5778 c-25 -26 -64 -91 -100 -163 -64 -129 -87 -194 -97 -261
-5 -41 -4 -43 38 -74 l44 -32 6 66 c5 62 34 146 49 146 8 0 122 -49 128 -55 2
-2 -46 -98 -107 -213 -100 -189 -329 -717 -317 -730 3 -2 83 65 178 148 95 84
178 154 184 157 7 2 79 -16 162 -41 82 -25 158 -46 167 -46 9 0 117 48 241
106 l224 106 170 -57 c93 -31 174 -54 180 -50 15 9 73 96 67 101 -2 3 -123 59
-268 124 l-264 120 -3 -106 -3 -105 -87 3 -87 3 2 142 c3 166 16 151 -132 156
l-90 2 3 41 3 40 -104 48 -105 48 14 34 c8 18 14 35 14 38 0 2 -34 23 -75 45
-71 39 -75 43 -69 69 17 69 48 134 84 175 22 25 40 48 40 51 0 3 -11 6 -25 6
-16 0 -39 -15 -65 -42z"/>
<path d="M4610 4328 c0 -276 -31 -1288 -46 -1535 l-6 -103 183 0 c441 0 904
37 1404 111 175 25 946 158 952 163 4 3 -128 1440 -133 1445 -4 5 -1462 20
-1991 20 l-363 1 0 -102z m377 -227 c384 -64 409 -67 428 -51 13 11 21 9 45
-8 29 -22 31 -22 590 -22 l560 0 0 -30 0 -30 -552 0 c-470 -1 -556 -3 -572
-15 -11 -8 -14 -15 -8 -15 15 0 16 -32 0 -48 -9 -9 -9 -18 0 -37 11 -23 17
-25 74 -25 140 0 325 -43 442 -102 37 -19 43 -19 280 -3 132 8 253 18 268 21
17 3 30 16 39 37 24 57 87 116 142 132 28 8 60 15 71 15 11 0 34 14 51 30 44
43 68 33 59 -25 -5 -36 -1 -51 21 -88 51 -89 29 -188 -52 -234 -82 -46 -151
-39 -232 23 -24 19 -48 34 -52 34 -4 0 -134 -18 -288 -40 l-281 -40 -55 -44
c-75 -62 -172 -105 -276 -124 -79 -15 -89 -19 -94 -41 -8 -30 8 -41 58 -41 32
0 37 -3 37 -24 0 -21 -6 -24 -52 -30 -29 -3 -153 -9 -275 -13 -249 -7 -293 1
-334 58 -34 47 -1 68 48 29 32 -25 98 -27 107 -4 3 9 6 28 6 44 0 31 26 26
-252 46 -91 7 -101 12 -111 54 -8 32 0 43 43 60 19 7 58 35 86 61 82 76 188
121 322 135 56 6 62 9 62 30 0 18 7 25 33 32 25 6 33 14 35 36 2 15 -2 34 -9
42 -9 11 -9 18 -1 26 7 7 12 23 12 36 l0 25 -192 -7 c-106 -3 -273 -9 -370
-12 -177 -7 -178 -7 -178 15 0 21 1 21 267 21 146 0 264 2 262 5 -5 4 -485 55
-522 55 -16 0 -18 5 -12 33 9 46 16 67 20 67 3 0 139 -22 302 -49z"/>
<path d="M5236 3614 c-26 -135 -27 -134 114 -134 74 0 111 4 118 13 10 11 35
127 29 133 -1 2 -59 6 -129 10 l-126 7 -6 -29z"/>
<path d="M5095 3608 c-69 -35 -112 -86 -87 -102 5 -3 31 -8 59 -12 44 -5 52
-4 61 13 15 27 27 123 16 123 -5 -1 -27 -10 -49 -22z"/>
<path d="M5282 3368 c2 -34 7 -43 21 -42 9 0 62 1 117 2 l100 2 0 34 0 33 -92
7 c-158 11 -150 13 -146 -36z"/>
<path d="M2337 3324 c-14 -32 -24 -61 -21 -65 4 -8 209 -129 217 -129 3 0 7 6
9 14 2 10 35 -5 113 -50 61 -35 113 -64 118 -64 4 0 7 7 7 15 0 18 -5 19 58
-5 29 -11 57 -20 62 -20 6 0 -26 32 -71 71 -50 45 -84 68 -88 61 -4 -7 -42 17
-101 64 l-94 75 -13 -33 -14 -32 -78 78 -78 77 -26 -57z"/>
<path d="M3814 3000 c-126 -93 -226 -170 -223 -170 3 0 55 9 115 20 152 28
184 26 336 -20 73 -23 154 -44 180 -47 42 -5 50 -3 76 23 16 16 31 36 34 44 4
12 16 11 82 -7 l78 -20 -126 125 -126 126 -40 -39 c-22 -21 -41 -37 -43 -34
-2 2 -25 39 -51 82 -27 42 -52 79 -56 82 -5 3 -111 -71 -236 -165z"/>
<path d="M1717 6161 l-47 -60 222 -340 c123 -187 226 -340 230 -341 3 0 27 26
51 57 l45 56 -49 73 c-27 40 -49 76 -49 79 0 8 149 195 156 195 2 0 41 -14 85
-31 45 -17 84 -27 88 -23 46 56 81 104 81 111 0 7 -683 263 -746 279 -16 4
-30 -8 -67 -55z m296 -175 c70 -28 127 -52 127 -56 0 -8 -101 -132 -105 -128
-15 16 -163 239 -157 236 5 -2 66 -25 135 -52z"/>
<path d="M7338 5872 c-214 -64 -388 -120 -388 -125 0 -15 74 -117 85 -117 5 0
45 12 88 26 43 14 79 24 81 23 1 -2 19 -28 39 -56 20 -29 52 -75 71 -101 l35
-48 -55 -68 c-30 -38 -54 -72 -54 -75 0 -4 20 -35 43 -69 l44 -62 247 331 246
330 -46 65 c-25 35 -46 64 -47 63 -1 0 -176 -53 -389 -117z m221 -129 c-99
-127 -121 -153 -128 -153 -8 0 -91 118 -91 129 0 6 239 88 263 90 5 1 -15 -29
-44 -66z"/>
<path d="M1366 5636 c-75 -133 -136 -245 -136 -249 0 -6 109 -67 120 -67 4 0
28 38 54 85 26 47 50 85 52 85 3 0 396 -220 511 -286 l41 -24 37 67 c20 36 33
69 28 73 -4 4 -127 73 -273 155 -146 81 -266 149 -268 150 -2 2 19 43 47 91
56 98 59 86 -30 137 l-47 27 -136 -244z"/>
<path d="M7698 5316 c-191 -84 -350 -155 -353 -158 -5 -5 145 -362 178 -424
l12 -22 62 26 c35 15 63 32 63 37 0 6 -29 75 -64 155 -35 80 -63 146 -62 146
0 1 127 56 281 123 154 67 284 126 288 130 8 8 -43 141 -53 140 -3 0 -161 -69
-352 -153z"/>
<path d="M1121 5154 c-13 -36 -22 -67 -20 -68 2 -2 112 -43 243 -92 131 -48
235 -89 230 -91 -5 -1 -134 -20 -288 -43 -153 -22 -282 -43 -286 -45 -10 -6
-54 -135 -48 -140 10 -10 711 -266 720 -263 6 2 21 31 33 65 l23 61 -238 88
c-131 49 -237 91 -235 93 2 2 131 22 287 45 l283 41 26 70 c21 54 24 72 15 77
-12 7 -713 268 -719 268 -1 0 -13 -30 -26 -66z"/>
<path d="M7916 4739 c-198 -49 -361 -91 -364 -93 -2 -2 22 -108 53 -235 39
-157 61 -231 70 -231 32 0 118 25 122 36 2 6 -12 80 -32 163 -21 84 -35 153
-33 155 1 1 138 35 303 75 165 40 302 75 304 77 2 2 -4 35 -14 74 -13 52 -21
70 -34 69 -9 -1 -178 -41 -375 -90z"/>
<path d="M1240 4280 l-385 -77 -7 -34 c-3 -19 -8 -54 -9 -79 l-3 -44 363 -173
c200 -95 367 -173 371 -173 10 0 23 96 18 130 -2 18 -19 30 -75 55 -40 17 -75
34 -78 36 -5 6 23 238 30 249 2 4 42 12 89 19 l85 13 6 46 c3 26 8 62 11 80 4
26 2 32 -13 31 -10 -1 -191 -36 -403 -79z m86 -147 c-2 -10 -8 -48 -12 -85 -3
-38 -8 -68 -10 -68 -13 0 -253 114 -249 118 4 5 232 49 263 51 8 1 11 -6 8
-16z"/>
<path d="M8041 4144 c-200 -18 -365 -35 -367 -37 -5 -5 43 -507 49 -513 3 -4
36 -3 72 1 77 8 72 -13 50 214 -8 85 -13 156 -12 157 3 3 180 22 183 20 1 -1
7 -59 13 -131 18 -210 13 -195 74 -195 83 0 81 -6 65 178 l-14 160 79 7 c43 4
80 6 82 4 2 -2 10 -82 19 -178 8 -96 17 -175 18 -176 2 -1 34 0 73 4 l70 6 -3
40 c-2 22 -12 135 -22 250 -11 116 -20 213 -20 218 0 9 17 10 -409 -29z"/>
<path d="M864 3646 c-113 -50 -182 -216 -144 -351 36 -128 187 -200 306 -146
52 24 88 69 144 177 73 142 101 166 166 139 38 -16 54 -46 54 -106 0 -85 -50
-148 -125 -156 -36 -5 -46 -10 -50 -27 -24 -118 -24 -116 2 -122 40 -10 110 2
161 28 130 67 192 304 111 434 -58 94 -197 139 -294 95 -56 -25 -97 -76 -155
-192 -28 -55 -59 -108 -70 -119 -27 -27 -63 -25 -97 4 -24 21 -28 32 -27 73 1
83 37 126 114 135 25 3 26 5 44 111 l7 37 -58 0 c-32 -1 -72 -7 -89 -14z"/>
<path d="M8245 3379 l-240 -89 -149 20 c-81 12 -150 20 -151 18 -5 -6 -24
-142 -20 -146 3 -3 255 -41 281 -42 6 0 110 -72 232 -159 173 -125 222 -156
226 -143 3 9 8 49 11 87 l6 70 -136 94 c-74 52 -132 97 -129 100 3 3 74 31
157 61 170 62 154 46 172 173 5 36 3 47 -7 46 -7 0 -121 -41 -253 -90z"/>
<path d="M1008 2605 c-114 -37 -153 -179 -71 -257 16 -15 66 -48 113 -73 93
-51 120 -75 120 -110 0 -33 -31 -55 -79 -55 -81 0 -138 40 -145 101 -3 30 -8
35 -42 46 -22 6 -49 12 -61 12 -21 1 -23 -4 -23 -44 0 -82 47 -147 133 -185
186 -82 360 -6 345 151 -7 71 -39 104 -159 170 -57 31 -108 63 -113 71 -5 8
-6 26 -2 41 18 74 186 35 186 -44 0 -25 5 -30 43 -39 23 -6 50 -13 59 -16 25
-7 34 38 18 89 -32 108 -199 181 -322 142z"/>
<path d="M7965 2493 c-110 -25 -201 -46 -202 -47 -3 -2 123 -556 128 -561 6
-6 411 84 421 94 6 5 -9 89 -18 100 -2 2 -68 -11 -148 -30 -80 -18 -148 -30
-152 -27 -3 3 -11 32 -19 64 -14 60 -10 73 22 74 7 0 63 12 124 26 l110 26 -6
42 c-4 22 -10 44 -14 48 -5 6 -97 -12 -248 -47 -19 -4 -24 1 -33 37 -6 24 -13
50 -16 59 -4 13 22 22 146 50 121 27 149 36 146 49 -3 8 -8 32 -12 53 -3 20
-11 37 -18 36 -6 0 -101 -21 -211 -46z"/>
<path d="M1435 2506 c-43 -186 -113 -541 -108 -546 5 -4 100 -26 212 -50 158
-33 205 -40 211 -30 8 13 23 91 18 95 -2 1 -66 14 -143 30 -77 15 -143 31
-148 35 -8 7 11 110 23 123 4 5 65 -3 135 -18 70 -15 130 -23 135 -19 4 5 11
27 15 50 l6 40 -136 29 c-127 26 -136 30 -131 49 2 12 8 38 11 59 4 20 10 37
14 37 4 0 69 -14 146 -30 76 -17 142 -27 146 -23 4 4 10 29 14 54 l7 45 -211
45 c-208 45 -212 45 -216 25z"/>
<path d="M7610 2418 c-30 -6 -56 -11 -58 -12 -1 -2 4 -38 13 -82 63 -338 63
-369 5 -399 -37 -19 -119 -19 -147 0 -28 20 -37 50 -68 230 -40 234 -28 208
-94 200 -31 -4 -59 -10 -63 -13 -7 -8 56 -374 72 -417 33 -88 94 -125 204
-125 92 0 169 26 213 72 62 67 69 108 43 264 -40 234 -52 294 -59 293 -3 -1
-31 -6 -61 -11z"/>
<path d="M2007 2268 c-176 -288 -237 -391 -237 -399 0 -8 43 -18 94 -22 25 -2
33 5 62 53 18 30 39 54 46 53 7 0 54 -9 105 -18 l91 -17 7 -47 c13 -89 11 -87
78 -99 33 -6 62 -10 64 -9 1 2 -21 137 -50 301 -37 212 -56 300 -67 306 -8 4
-38 11 -66 15 l-52 7 -75 -124z m132 -152 c7 -48 11 -90 9 -91 -5 -4 -127 19
-130 25 -1 3 20 45 47 93 30 54 51 83 56 75 3 -7 12 -53 18 -102z"/>
<path d="M2446 2321 c-7 -12 -89 -561 -84 -566 2 -3 32 -8 65 -11 l60 -6 12
88 c20 145 9 133 104 118 110 -18 117 -27 117 -149 0 -104 -4 -98 80 -110 l45
-6 2 88 c3 115 -2 146 -32 175 l-24 25 35 16 c62 30 91 127 60 201 -27 66 -69
85 -238 112 -84 13 -163 25 -176 28 -12 2 -24 1 -26 -3z m194 -126 c108 -15
137 -39 126 -100 -11 -56 -35 -69 -118 -61 -120 11 -116 8 -106 74 14 95 17
104 36 98 9 -2 37 -7 62 -11z"/>
<path d="M6833 2302 c-103 -37 -161 -105 -183 -215 -30 -149 49 -309 176 -356
138 -52 283 1 340 124 13 27 24 67 24 88 0 41 -6 43 -82 31 -31 -6 -38 -11
-44 -38 -16 -78 -62 -116 -136 -116 -102 0 -178 137 -149 267 28 122 180 164
246 67 19 -28 22 -29 74 -21 30 4 56 9 58 11 9 9 -11 57 -39 90 -63 76 -182
105 -285 68z"/>
<path d="M6272 2237 c-45 -17 -99 -62 -118 -99 -11 -21 -15 -47 -12 -80 9 -92
60 -129 209 -155 111 -18 146 -34 155 -69 5 -20 1 -32 -19 -52 -22 -21 -38
-27 -91 -30 -62 -4 -67 -3 -96 26 -16 17 -30 38 -30 48 0 15 -7 16 -62 10 -35
-4 -64 -9 -65 -10 -8 -8 22 -81 44 -107 41 -48 95 -69 185 -69 176 0 273 84
255 222 -11 79 -82 125 -222 143 -116 15 -155 39 -140 85 16 51 128 68 170 25
14 -13 25 -29 25 -35 0 -12 99 -13 118 -1 11 7 11 15 -3 47 -21 51 -42 73 -90
95 -46 21 -161 24 -213 6z"/>
<path d="M3116 2215 c-122 -43 -193 -168 -184 -324 6 -92 29 -143 92 -198 111
-97 294 -88 379 18 28 36 60 109 51 119 -3 2 -30 7 -60 10 l-56 6 -19 -38
c-11 -21 -34 -48 -52 -59 -65 -41 -172 1 -197 77 -17 50 -9 160 15 209 55 111
208 114 253 5 14 -32 22 -40 43 -40 15 0 41 -3 58 -6 27 -6 31 -4 31 16 0 87
-72 178 -161 204 -64 20 -141 20 -193 1z"/>
<path d="M5820 2193 c-96 -8 -176 -15 -176 -16 -5 -5 42 -566 47 -572 3 -3 93
1 200 10 107 8 202 15 212 15 14 0 17 9 17 55 0 64 18 60 -170 44 -153 -13
-150 -15 -150 72 l0 57 108 6 c167 11 162 9 162 68 l0 50 -52 -5 c-29 -4 -92
-9 -139 -13 l-86 -6 -6 38 c-4 22 -7 49 -7 60 0 23 -4 22 218 40 l82 7 0 53 0
54 -42 -1 c-24 -1 -122 -8 -218 -16z"/>
<path d="M3556 2158 c-7 -34 -40 -548 -35 -552 2 -2 31 -6 64 -8 l60 -3 9 124
8 124 67 -7 c36 -3 88 -6 114 -6 l48 0 -3 -127 -3 -128 60 -3 61 -3 17 253
c10 139 17 270 17 291 l0 38 -62 -3 -63 -3 -2 -35 c-2 -19 -5 -67 -9 -105 l-5
-70 -112 8 c-61 4 -113 9 -114 11 -2 2 0 50 5 109 l7 105 -35 6 c-68 11 -89 8
-94 -16z"/>
<path d="M5251 2158 c-90 -4 -165 -9 -166 -10 -1 -2 4 -109 11 -238 7 -129 13
-259 13 -288 l1 -53 63 3 62 3 -2 112 -2 111 72 7 c117 11 140 -6 158 -118 16
-102 12 -97 86 -97 58 0 64 2 58 18 -8 17 -33 153 -34 181 -1 7 -17 29 -36 47
-34 32 -35 34 -15 44 50 27 68 146 30 207 -43 72 -82 81 -299 71z m169 -116
c29 -24 33 -93 7 -119 -23 -24 -185 -33 -198 -12 -5 8 -9 44 -9 82 l0 67 89 0
c71 0 93 -4 111 -18z"/>
<path d="M4487 2136 c-46 -17 -64 -32 -83 -67 -21 -41 -17 -88 12 -139 17 -29
21 -46 14 -48 -22 -8 -81 -65 -96 -93 -7 -15 -14 -50 -14 -77 0 -136 156 -205
296 -131 l58 30 19 -25 c17 -24 25 -26 88 -26 38 0 69 3 69 6 0 3 -25 34 -55
68 l-54 62 24 49 c14 27 25 59 25 72 0 21 -4 23 -49 23 -47 0 -50 -2 -56 -30
-4 -16 -10 -30 -14 -30 -4 0 -21 19 -39 42 l-32 41 34 23 c63 43 84 130 46
191 -34 57 -123 84 -193 59z m93 -86 c27 -27 25 -52 -7 -90 l-27 -33 -23 27
c-31 37 -32 93 0 106 32 13 35 12 57 -10z m-26 -294 c25 -29 46 -58 46 -63 0
-13 -37 -38 -68 -46 -13 -3 -37 -1 -53 5 -56 20 -66 82 -20 129 16 16 34 29
39 29 6 0 31 -24 56 -54z"/>
</g>
</svg>
